<?xml version="1.0" encoding="utf-8" standalone="no"?>
<!DOCTYPE svg PUBLIC "-//W3C//DTD SVG 1.1//EN"
  "http://www.w3.org/Graphics/SVG/1.1/DTD/svg11.dtd">
<!-- Created with matplotlib (https://matplotlib.org/) -->
<svg height="406.332812pt" version="1.1" viewBox="0 0 816.145312 406.332812" width="816.145312pt" xmlns="http://www.w3.org/2000/svg" xmlns:xlink="http://www.w3.org/1999/xlink">
 <metadata>
  <rdf:RDF xmlns:cc="http://creativecommons.org/ns#" xmlns:dc="http://purl.org/dc/elements/1.1/" xmlns:rdf="http://www.w3.org/1999/02/22-rdf-syntax-ns#">
   <cc:Work>
    <dc:type rdf:resource="http://purl.org/dc/dcmitype/StillImage"/>
    <dc:date>2020-11-25T10:35:57.136868</dc:date>
    <dc:format>image/svg+xml</dc:format>
    <dc:creator>
     <cc:Agent>
      <dc:title>Matplotlib v3.3.1, https://matplotlib.org/</dc:title>
     </cc:Agent>
    </dc:creator>
   </cc:Work>
  </rdf:RDF>
 </metadata>
 <defs>
  <style type="text/css">*{stroke-linecap:butt;stroke-linejoin:round;}</style>
 </defs>
 <g id="figure_1">
  <g id="patch_1">
   <path d="M 0 406.332812 
L 816.145313 406.332812 
L 816.145313 0 
L 0 0 
z
" style="fill:none;"/>
  </g>
  <g id="axes_1">
   <g id="patch_2">
    <path d="M 41.003125 339.066406 
L 599.003125 339.066406 
L 599.003125 67.266406 
L 41.003125 67.266406 
z
" style="fill:#ffffff;"/>
   </g>
   <g id="line2d_1">
    <path clip-path="url(#p36e2480a35)" d="M 66.366761 144.914404 
L 82.219034 117.388733 
L 98.071307 103.305832 
L 113.92358 95.624249 
L 129.775852 88.582798 
L 145.628125 94.343985 
L 161.480398 109.70715 
L 177.33267 105.226227 
L 193.184943 128.270975 
L 209.037216 115.468337 
L 224.889489 86.662402 
L 240.741761 109.067019 
L 256.594034 91.143326 
L 272.446307 88.582798 
L 288.29858 96.264381 
L 304.150852 98.184776 
L 320.003125 126.35058 
L 335.855398 121.869656 
L 351.70767 103.945963 
L 367.559943 123.14992 
L 383.412216 105.226227 
L 399.264489 98.184776 
L 415.116761 112.267678 
L 430.969034 84.742007 
L 446.821307 94.343985 
L 462.67358 100.745304 
L 478.525852 100.745304 
L 494.378125 129.551239 
L 510.230398 119.949261 
L 526.08267 131.471635 
L 541.934943 109.70715 
L 557.787216 84.742007 
L 573.639489 123.14992 
" style="fill:none;stroke:#ffa500;stroke-linecap:square;stroke-opacity:0.75;stroke-width:1.5;"/>
   </g>
   <g id="line2d_2">
    <path clip-path="url(#p36e2480a35)" d="M 66.366761 201.886142 
L 82.219034 190.363768 
L 98.071307 174.360471 
L 113.92358 162.838097 
L 129.775852 142.994009 
L 145.628125 144.914404 
L 161.480398 141.713745 
L 177.33267 130.191371 
L 193.184943 126.990711 
L 209.037216 114.188074 
L 224.889489 116.108469 
L 240.741761 112.267678 
L 256.594034 93.063721 
L 272.446307 86.662402 
L 288.29858 79.620952 
L 304.150852 85.382139 
L 320.003125 98.824908 
L 335.855398 96.264381 
L 351.70767 110.987414 
L 367.559943 118.028865 
L 383.412216 110.987414 
L 399.264489 96.904513 
L 415.116761 102.025568 
L 430.969034 89.22293 
L 446.821307 89.22293 
L 462.67358 89.863062 
L 478.525852 89.863062 
L 494.378125 82.821611 
L 510.230398 112.267678 
L 526.08267 98.184776 
L 541.934943 95.624249 
L 557.787216 89.863062 
L 573.639489 93.703853 
" style="fill:none;stroke:#0000ff;stroke-linecap:square;stroke-opacity:0.75;stroke-width:1.5;"/>
   </g>
   <g id="matplotlib.axis_1">
    <g id="xtick_1">
     <g id="line2d_3">
      <path clip-path="url(#p36e2480a35)" d="M 82.219034 339.066406 
L 82.219034 67.266406 
" style="fill:none;stroke:#b0b0b0;stroke-linecap:square;stroke-width:0.8;"/>
     </g>
     <g id="line2d_4">
      <defs>
       <path d="M 0 0 
L 0 3.5 
" id="m45909c5a13" style="stroke:#000000;stroke-width:0.8;"/>
      </defs>
      <g>
       <use style="stroke:#000000;stroke-width:0.8;" x="82.219034" xlink:href="#m45909c5a13" y="339.066406"/>
      </g>
     </g>
     <g id="text_1">
      <!-- 1980 -->
      <g transform="translate(69.494034 353.664844)scale(0.1 -0.1)">
       <defs>
        <path d="M 12.40625 8.296875 
L 28.515625 8.296875 
L 28.515625 63.921875 
L 10.984375 60.40625 
L 10.984375 69.390625 
L 28.421875 72.90625 
L 38.28125 72.90625 
L 38.28125 8.296875 
L 54.390625 8.296875 
L 54.390625 0 
L 12.40625 0 
z
" id="DejaVuSans-49"/>
        <path d="M 10.984375 1.515625 
L 10.984375 10.5 
Q 14.703125 8.734375 18.5 7.8125 
Q 22.3125 6.890625 25.984375 6.890625 
Q 35.75 6.890625 40.890625 13.453125 
Q 46.046875 20.015625 46.78125 33.40625 
Q 43.953125 29.203125 39.59375 26.953125 
Q 35.25 24.703125 29.984375 24.703125 
Q 19.046875 24.703125 12.671875 31.3125 
Q 6.296875 37.9375 6.296875 49.421875 
Q 6.296875 60.640625 12.9375 67.421875 
Q 19.578125 74.21875 30.609375 74.21875 
Q 43.265625 74.21875 49.921875 64.515625 
Q 56.59375 54.828125 56.59375 36.375 
Q 56.59375 19.140625 48.40625 8.859375 
Q 40.234375 -1.421875 26.421875 -1.421875 
Q 22.703125 -1.421875 18.890625 -0.6875 
Q 15.09375 0.046875 10.984375 1.515625 
z
M 30.609375 32.421875 
Q 37.25 32.421875 41.125 36.953125 
Q 45.015625 41.5 45.015625 49.421875 
Q 45.015625 57.28125 41.125 61.84375 
Q 37.25 66.40625 30.609375 66.40625 
Q 23.96875 66.40625 20.09375 61.84375 
Q 16.21875 57.28125 16.21875 49.421875 
Q 16.21875 41.5 20.09375 36.953125 
Q 23.96875 32.421875 30.609375 32.421875 
z
" id="DejaVuSans-57"/>
        <path d="M 31.78125 34.625 
Q 24.75 34.625 20.71875 30.859375 
Q 16.703125 27.09375 16.703125 20.515625 
Q 16.703125 13.921875 20.71875 10.15625 
Q 24.75 6.390625 31.78125 6.390625 
Q 38.8125 6.390625 42.859375 10.171875 
Q 46.921875 13.96875 46.921875 20.515625 
Q 46.921875 27.09375 42.890625 30.859375 
Q 38.875 34.625 31.78125 34.625 
z
M 21.921875 38.8125 
Q 15.578125 40.375 12.03125 44.71875 
Q 8.5 49.078125 8.5 55.328125 
Q 8.5 64.0625 14.71875 69.140625 
Q 20.953125 74.21875 31.78125 74.21875 
Q 42.671875 74.21875 48.875 69.140625 
Q 55.078125 64.0625 55.078125 55.328125 
Q 55.078125 49.078125 51.53125 44.71875 
Q 48 40.375 41.703125 38.8125 
Q 48.828125 37.15625 52.796875 32.3125 
Q 56.78125 27.484375 56.78125 20.515625 
Q 56.78125 9.90625 50.3125 4.234375 
Q 43.84375 -1.421875 31.78125 -1.421875 
Q 19.734375 -1.421875 13.25 4.234375 
Q 6.78125 9.90625 6.78125 20.515625 
Q 6.78125 27.484375 10.78125 32.3125 
Q 14.796875 37.15625 21.921875 38.8125 
z
M 18.3125 54.390625 
Q 18.3125 48.734375 21.84375 45.5625 
Q 25.390625 42.390625 31.78125 42.390625 
Q 38.140625 42.390625 41.71875 45.5625 
Q 45.3125 48.734375 45.3125 54.390625 
Q 45.3125 60.0625 41.71875 63.234375 
Q 38.140625 66.40625 31.78125 66.40625 
Q 25.390625 66.40625 21.84375 63.234375 
Q 18.3125 60.0625 18.3125 54.390625 
z
" id="DejaVuSans-56"/>
        <path d="M 31.78125 66.40625 
Q 24.171875 66.40625 20.328125 58.90625 
Q 16.5 51.421875 16.5 36.375 
Q 16.5 21.390625 20.328125 13.890625 
Q 24.171875 6.390625 31.78125 6.390625 
Q 39.453125 6.390625 43.28125 13.890625 
Q 47.125 21.390625 47.125 36.375 
Q 47.125 51.421875 43.28125 58.90625 
Q 39.453125 66.40625 31.78125 66.40625 
z
M 31.78125 74.21875 
Q 44.046875 74.21875 50.515625 64.515625 
Q 56.984375 54.828125 56.984375 36.375 
Q 56.984375 17.96875 50.515625 8.265625 
Q 44.046875 -1.421875 31.78125 -1.421875 
Q 19.53125 -1.421875 13.0625 8.265625 
Q 6.59375 17.96875 6.59375 36.375 
Q 6.59375 54.828125 13.0625 64.515625 
Q 19.53125 74.21875 31.78125 74.21875 
z
" id="DejaVuSans-48"/>
       </defs>
       <use xlink:href="#DejaVuSans-49"/>
       <use x="63.623047" xlink:href="#DejaVuSans-57"/>
       <use x="127.246094" xlink:href="#DejaVuSans-56"/>
       <use x="190.869141" xlink:href="#DejaVuSans-48"/>
      </g>
     </g>
    </g>
    <g id="xtick_2">
     <g id="line2d_5">
      <path clip-path="url(#p36e2480a35)" d="M 161.480398 339.066406 
L 161.480398 67.266406 
" style="fill:none;stroke:#b0b0b0;stroke-linecap:square;stroke-width:0.8;"/>
     </g>
     <g id="line2d_6">
      <g>
       <use style="stroke:#000000;stroke-width:0.8;" x="161.480398" xlink:href="#m45909c5a13" y="339.066406"/>
      </g>
     </g>
     <g id="text_2">
      <!-- 1985 -->
      <g transform="translate(148.755398 353.664844)scale(0.1 -0.1)">
       <defs>
        <path d="M 10.796875 72.90625 
L 49.515625 72.90625 
L 49.515625 64.59375 
L 19.828125 64.59375 
L 19.828125 46.734375 
Q 21.96875 47.46875 24.109375 47.828125 
Q 26.265625 48.1875 28.421875 48.1875 
Q 40.625 48.1875 47.75 41.5 
Q 54.890625 34.8125 54.890625 23.390625 
Q 54.890625 11.625 47.5625 5.09375 
Q 40.234375 -1.421875 26.90625 -1.421875 
Q 22.3125 -1.421875 17.546875 -0.640625 
Q 12.796875 0.140625 7.71875 1.703125 
L 7.71875 11.625 
Q 12.109375 9.234375 16.796875 8.0625 
Q 21.484375 6.890625 26.703125 6.890625 
Q 35.15625 6.890625 40.078125 11.328125 
Q 45.015625 15.765625 45.015625 23.390625 
Q 45.015625 31 40.078125 35.4375 
Q 35.15625 39.890625 26.703125 39.890625 
Q 22.75 39.890625 18.8125 39.015625 
Q 14.890625 38.140625 10.796875 36.28125 
z
" id="DejaVuSans-53"/>
       </defs>
       <use xlink:href="#DejaVuSans-49"/>
       <use x="63.623047" xlink:href="#DejaVuSans-57"/>
       <use x="127.246094" xlink:href="#DejaVuSans-56"/>
       <use x="190.869141" xlink:href="#DejaVuSans-53"/>
      </g>
     </g>
    </g>
    <g id="xtick_3">
     <g id="line2d_7">
      <path clip-path="url(#p36e2480a35)" d="M 240.741761 339.066406 
L 240.741761 67.266406 
" style="fill:none;stroke:#b0b0b0;stroke-linecap:square;stroke-width:0.8;"/>
     </g>
     <g id="line2d_8">
      <g>
       <use style="stroke:#000000;stroke-width:0.8;" x="240.741761" xlink:href="#m45909c5a13" y="339.066406"/>
      </g>
     </g>
     <g id="text_3">
      <!-- 1990 -->
      <g transform="translate(228.016761 353.664844)scale(0.1 -0.1)">
       <use xlink:href="#DejaVuSans-49"/>
       <use x="63.623047" xlink:href="#DejaVuSans-57"/>
       <use x="127.246094" xlink:href="#DejaVuSans-57"/>
       <use x="190.869141" xlink:href="#DejaVuSans-48"/>
      </g>
     </g>
    </g>
    <g id="xtick_4">
     <g id="line2d_9">
      <path clip-path="url(#p36e2480a35)" d="M 320.003125 339.066406 
L 320.003125 67.266406 
" style="fill:none;stroke:#b0b0b0;stroke-linecap:square;stroke-width:0.8;"/>
     </g>
     <g id="line2d_10">
      <g>
       <use style="stroke:#000000;stroke-width:0.8;" x="320.003125" xlink:href="#m45909c5a13" y="339.066406"/>
      </g>
     </g>
     <g id="text_4">
      <!-- 1995 -->
      <g transform="translate(307.278125 353.664844)scale(0.1 -0.1)">
       <use xlink:href="#DejaVuSans-49"/>
       <use x="63.623047" xlink:href="#DejaVuSans-57"/>
       <use x="127.246094" xlink:href="#DejaVuSans-57"/>
       <use x="190.869141" xlink:href="#DejaVuSans-53"/>
      </g>
     </g>
    </g>
    <g id="xtick_5">
     <g id="line2d_11">
      <path clip-path="url(#p36e2480a35)" d="M 399.264489 339.066406 
L 399.264489 67.266406 
" style="fill:none;stroke:#b0b0b0;stroke-linecap:square;stroke-width:0.8;"/>
     </g>
     <g id="line2d_12">
      <g>
       <use style="stroke:#000000;stroke-width:0.8;" x="399.264489" xlink:href="#m45909c5a13" y="339.066406"/>
      </g>
     </g>
     <g id="text_5">
      <!-- 2000 -->
      <g transform="translate(386.539489 353.664844)scale(0.1 -0.1)">
       <defs>
        <path d="M 19.1875 8.296875 
L 53.609375 8.296875 
L 53.609375 0 
L 7.328125 0 
L 7.328125 8.296875 
Q 12.9375 14.109375 22.625 23.890625 
Q 32.328125 33.6875 34.8125 36.53125 
Q 39.546875 41.84375 41.421875 45.53125 
Q 43.3125 49.21875 43.3125 52.78125 
Q 43.3125 58.59375 39.234375 62.25 
Q 35.15625 65.921875 28.609375 65.921875 
Q 23.96875 65.921875 18.8125 64.3125 
Q 13.671875 62.703125 7.8125 59.421875 
L 7.8125 69.390625 
Q 13.765625 71.78125 18.9375 73 
Q 24.125 74.21875 28.421875 74.21875 
Q 39.75 74.21875 46.484375 68.546875 
Q 53.21875 62.890625 53.21875 53.421875 
Q 53.21875 48.921875 51.53125 44.890625 
Q 49.859375 40.875 45.40625 35.40625 
Q 44.1875 33.984375 37.640625 27.21875 
Q 31.109375 20.453125 19.1875 8.296875 
z
" id="DejaVuSans-50"/>
       </defs>
       <use xlink:href="#DejaVuSans-50"/>
       <use x="63.623047" xlink:href="#DejaVuSans-48"/>
       <use x="127.246094" xlink:href="#DejaVuSans-48"/>
       <use x="190.869141" xlink:href="#DejaVuSans-48"/>
      </g>
     </g>
    </g>
    <g id="xtick_6">
     <g id="line2d_13">
      <path clip-path="url(#p36e2480a35)" d="M 478.525852 339.066406 
L 478.525852 67.266406 
" style="fill:none;stroke:#b0b0b0;stroke-linecap:square;stroke-width:0.8;"/>
     </g>
     <g id="line2d_14">
      <g>
       <use style="stroke:#000000;stroke-width:0.8;" x="478.525852" xlink:href="#m45909c5a13" y="339.066406"/>
      </g>
     </g>
     <g id="text_6">
      <!-- 2005 -->
      <g transform="translate(465.800852 353.664844)scale(0.1 -0.1)">
       <use xlink:href="#DejaVuSans-50"/>
       <use x="63.623047" xlink:href="#DejaVuSans-48"/>
       <use x="127.246094" xlink:href="#DejaVuSans-48"/>
       <use x="190.869141" xlink:href="#DejaVuSans-53"/>
      </g>
     </g>
    </g>
    <g id="xtick_7">
     <g id="line2d_15">
      <path clip-path="url(#p36e2480a35)" d="M 557.787216 339.066406 
L 557.787216 67.266406 
" style="fill:none;stroke:#b0b0b0;stroke-linecap:square;stroke-width:0.8;"/>
     </g>
     <g id="line2d_16">
      <g>
       <use style="stroke:#000000;stroke-width:0.8;" x="557.787216" xlink:href="#m45909c5a13" y="339.066406"/>
      </g>
     </g>
     <g id="text_7">
      <!-- 2010 -->
      <g transform="translate(545.062216 353.664844)scale(0.1 -0.1)">
       <use xlink:href="#DejaVuSans-50"/>
       <use x="63.623047" xlink:href="#DejaVuSans-48"/>
       <use x="127.246094" xlink:href="#DejaVuSans-49"/>
       <use x="190.869141" xlink:href="#DejaVuSans-48"/>
      </g>
     </g>
    </g>
    <g id="text_8">
     <!-- Ano -->
     <g transform="translate(302.635938 373.421719)scale(0.18 -0.18)">
      <defs>
       <path d="M 34.1875 63.1875 
L 20.796875 26.90625 
L 47.609375 26.90625 
z
M 28.609375 72.90625 
L 39.796875 72.90625 
L 67.578125 0 
L 57.328125 0 
L 50.6875 18.703125 
L 17.828125 18.703125 
L 11.1875 0 
L 0.78125 0 
z
" id="DejaVuSans-65"/>
       <path d="M 54.890625 33.015625 
L 54.890625 0 
L 45.90625 0 
L 45.90625 32.71875 
Q 45.90625 40.484375 42.875 44.328125 
Q 39.84375 48.1875 33.796875 48.1875 
Q 26.515625 48.1875 22.3125 43.546875 
Q 18.109375 38.921875 18.109375 30.90625 
L 18.109375 0 
L 9.078125 0 
L 9.078125 54.6875 
L 18.109375 54.6875 
L 18.109375 46.1875 
Q 21.34375 51.125 25.703125 53.5625 
Q 30.078125 56 35.796875 56 
Q 45.21875 56 50.046875 50.171875 
Q 54.890625 44.34375 54.890625 33.015625 
z
" id="DejaVuSans-110"/>
       <path d="M 30.609375 48.390625 
Q 23.390625 48.390625 19.1875 42.75 
Q 14.984375 37.109375 14.984375 27.296875 
Q 14.984375 17.484375 19.15625 11.84375 
Q 23.34375 6.203125 30.609375 6.203125 
Q 37.796875 6.203125 41.984375 11.859375 
Q 46.1875 17.53125 46.1875 27.296875 
Q 46.1875 37.015625 41.984375 42.703125 
Q 37.796875 48.390625 30.609375 48.390625 
z
M 30.609375 56 
Q 42.328125 56 49.015625 48.375 
Q 55.71875 40.765625 55.71875 27.296875 
Q 55.71875 13.875 49.015625 6.21875 
Q 42.328125 -1.421875 30.609375 -1.421875 
Q 18.84375 -1.421875 12.171875 6.21875 
Q 5.515625 13.875 5.515625 27.296875 
Q 5.515625 40.765625 12.171875 48.375 
Q 18.84375 56 30.609375 56 
z
" id="DejaVuSans-111"/>
      </defs>
      <use xlink:href="#DejaVuSans-65"/>
      <use x="68.408203" xlink:href="#DejaVuSans-110"/>
      <use x="131.787109" xlink:href="#DejaVuSans-111"/>
     </g>
    </g>
   </g>
   <g id="matplotlib.axis_2">
    <g id="ytick_1">
     <g id="line2d_17">
      <path clip-path="url(#p36e2480a35)" d="M 41.003125 338.234235 
L 599.003125 338.234235 
" style="fill:none;stroke:#b0b0b0;stroke-linecap:square;stroke-width:0.8;"/>
     </g>
     <g id="line2d_18">
      <defs>
       <path d="M 0 0 
L -3.5 0 
" id="m962015b35f" style="stroke:#000000;stroke-width:0.8;"/>
      </defs>
      <g>
       <use style="stroke:#000000;stroke-width:0.8;" x="41.003125" xlink:href="#m962015b35f" y="338.234235"/>
      </g>
     </g>
     <g id="text_9">
      <!-- 55 -->
      <g transform="translate(21.278125 342.033454)scale(0.1 -0.1)">
       <use xlink:href="#DejaVuSans-53"/>
       <use x="63.623047" xlink:href="#DejaVuSans-53"/>
      </g>
     </g>
    </g>
    <g id="ytick_2">
     <g id="line2d_19">
      <path clip-path="url(#p36e2480a35)" d="M 41.003125 306.22764 
L 599.003125 306.22764 
" style="fill:none;stroke:#b0b0b0;stroke-linecap:square;stroke-width:0.8;"/>
     </g>
     <g id="line2d_20">
      <g>
       <use style="stroke:#000000;stroke-width:0.8;" x="41.003125" xlink:href="#m962015b35f" y="306.22764"/>
      </g>
     </g>
     <g id="text_10">
      <!-- 60 -->
      <g transform="translate(21.278125 310.026859)scale(0.1 -0.1)">
       <defs>
        <path d="M 33.015625 40.375 
Q 26.375 40.375 22.484375 35.828125 
Q 18.609375 31.296875 18.609375 23.390625 
Q 18.609375 15.53125 22.484375 10.953125 
Q 26.375 6.390625 33.015625 6.390625 
Q 39.65625 6.390625 43.53125 10.953125 
Q 47.40625 15.53125 47.40625 23.390625 
Q 47.40625 31.296875 43.53125 35.828125 
Q 39.65625 40.375 33.015625 40.375 
z
M 52.59375 71.296875 
L 52.59375 62.3125 
Q 48.875 64.0625 45.09375 64.984375 
Q 41.3125 65.921875 37.59375 65.921875 
Q 27.828125 65.921875 22.671875 59.328125 
Q 17.53125 52.734375 16.796875 39.40625 
Q 19.671875 43.65625 24.015625 45.921875 
Q 28.375 48.1875 33.59375 48.1875 
Q 44.578125 48.1875 50.953125 41.515625 
Q 57.328125 34.859375 57.328125 23.390625 
Q 57.328125 12.15625 50.6875 5.359375 
Q 44.046875 -1.421875 33.015625 -1.421875 
Q 20.359375 -1.421875 13.671875 8.265625 
Q 6.984375 17.96875 6.984375 36.375 
Q 6.984375 53.65625 15.1875 63.9375 
Q 23.390625 74.21875 37.203125 74.21875 
Q 40.921875 74.21875 44.703125 73.484375 
Q 48.484375 72.75 52.59375 71.296875 
z
" id="DejaVuSans-54"/>
       </defs>
       <use xlink:href="#DejaVuSans-54"/>
       <use x="63.623047" xlink:href="#DejaVuSans-48"/>
      </g>
     </g>
    </g>
    <g id="ytick_3">
     <g id="line2d_21">
      <path clip-path="url(#p36e2480a35)" d="M 41.003125 274.221046 
L 599.003125 274.221046 
" style="fill:none;stroke:#b0b0b0;stroke-linecap:square;stroke-width:0.8;"/>
     </g>
     <g id="line2d_22">
      <g>
       <use style="stroke:#000000;stroke-width:0.8;" x="41.003125" xlink:href="#m962015b35f" y="274.221046"/>
      </g>
     </g>
     <g id="text_11">
      <!-- 65 -->
      <g transform="translate(21.278125 278.020265)scale(0.1 -0.1)">
       <use xlink:href="#DejaVuSans-54"/>
       <use x="63.623047" xlink:href="#DejaVuSans-53"/>
      </g>
     </g>
    </g>
    <g id="ytick_4">
     <g id="line2d_23">
      <path clip-path="url(#p36e2480a35)" d="M 41.003125 242.214451 
L 599.003125 242.214451 
" style="fill:none;stroke:#b0b0b0;stroke-linecap:square;stroke-width:0.8;"/>
     </g>
     <g id="line2d_24">
      <g>
       <use style="stroke:#000000;stroke-width:0.8;" x="41.003125" xlink:href="#m962015b35f" y="242.214451"/>
      </g>
     </g>
     <g id="text_12">
      <!-- 70 -->
      <g transform="translate(21.278125 246.01367)scale(0.1 -0.1)">
       <defs>
        <path d="M 8.203125 72.90625 
L 55.078125 72.90625 
L 55.078125 68.703125 
L 28.609375 0 
L 18.3125 0 
L 43.21875 64.59375 
L 8.203125 64.59375 
z
" id="DejaVuSans-55"/>
       </defs>
       <use xlink:href="#DejaVuSans-55"/>
       <use x="63.623047" xlink:href="#DejaVuSans-48"/>
      </g>
     </g>
    </g>
    <g id="ytick_5">
     <g id="line2d_25">
      <path clip-path="url(#p36e2480a35)" d="M 41.003125 210.207857 
L 599.003125 210.207857 
" style="fill:none;stroke:#b0b0b0;stroke-linecap:square;stroke-width:0.8;"/>
     </g>
     <g id="line2d_26">
      <g>
       <use style="stroke:#000000;stroke-width:0.8;" x="41.003125" xlink:href="#m962015b35f" y="210.207857"/>
      </g>
     </g>
     <g id="text_13">
      <!-- 75 -->
      <g transform="translate(21.278125 214.007076)scale(0.1 -0.1)">
       <use xlink:href="#DejaVuSans-55"/>
       <use x="63.623047" xlink:href="#DejaVuSans-53"/>
      </g>
     </g>
    </g>
    <g id="ytick_6">
     <g id="line2d_27">
      <path clip-path="url(#p36e2480a35)" d="M 41.003125 178.201263 
L 599.003125 178.201263 
" style="fill:none;stroke:#b0b0b0;stroke-linecap:square;stroke-width:0.8;"/>
     </g>
     <g id="line2d_28">
      <g>
       <use style="stroke:#000000;stroke-width:0.8;" x="41.003125" xlink:href="#m962015b35f" y="178.201263"/>
      </g>
     </g>
     <g id="text_14">
      <!-- 80 -->
      <g transform="translate(21.278125 182.000481)scale(0.1 -0.1)">
       <use xlink:href="#DejaVuSans-56"/>
       <use x="63.623047" xlink:href="#DejaVuSans-48"/>
      </g>
     </g>
    </g>
    <g id="ytick_7">
     <g id="line2d_29">
      <path clip-path="url(#p36e2480a35)" d="M 41.003125 146.194668 
L 599.003125 146.194668 
" style="fill:none;stroke:#b0b0b0;stroke-linecap:square;stroke-width:0.8;"/>
     </g>
     <g id="line2d_30">
      <g>
       <use style="stroke:#000000;stroke-width:0.8;" x="41.003125" xlink:href="#m962015b35f" y="146.194668"/>
      </g>
     </g>
     <g id="text_15">
      <!-- 85 -->
      <g transform="translate(21.278125 149.993887)scale(0.1 -0.1)">
       <use xlink:href="#DejaVuSans-56"/>
       <use x="63.623047" xlink:href="#DejaVuSans-53"/>
      </g>
     </g>
    </g>
    <g id="ytick_8">
     <g id="line2d_31">
      <path clip-path="url(#p36e2480a35)" d="M 41.003125 114.188074 
L 599.003125 114.188074 
" style="fill:none;stroke:#b0b0b0;stroke-linecap:square;stroke-width:0.8;"/>
     </g>
     <g id="line2d_32">
      <g>
       <use style="stroke:#000000;stroke-width:0.8;" x="41.003125" xlink:href="#m962015b35f" y="114.188074"/>
      </g>
     </g>
     <g id="text_16">
      <!-- 90 -->
      <g transform="translate(21.278125 117.987292)scale(0.1 -0.1)">
       <use xlink:href="#DejaVuSans-57"/>
       <use x="63.623047" xlink:href="#DejaVuSans-48"/>
      </g>
     </g>
    </g>
    <g id="ytick_9">
     <g id="line2d_33">
      <path clip-path="url(#p36e2480a35)" d="M 41.003125 82.181479 
L 599.003125 82.181479 
" style="fill:none;stroke:#b0b0b0;stroke-linecap:square;stroke-width:0.8;"/>
     </g>
     <g id="line2d_34">
      <g>
       <use style="stroke:#000000;stroke-width:0.8;" x="41.003125" xlink:href="#m962015b35f" y="82.181479"/>
      </g>
     </g>
     <g id="text_17">
      <!-- 95 -->
      <g transform="translate(21.278125 85.980698)scale(0.1 -0.1)">
       <use xlink:href="#DejaVuSans-57"/>
       <use x="63.623047" xlink:href="#DejaVuSans-53"/>
      </g>
     </g>
    </g>
    <g id="text_18">
     <!-- Salário do sexo feminino como porcentagem do salário do sexo masculino (%) -->
     <g transform="translate(15.198437 399.132812)rotate(-90)scale(0.1 -0.1)">
      <defs>
       <path d="M 53.515625 70.515625 
L 53.515625 60.890625 
Q 47.90625 63.578125 42.921875 64.890625 
Q 37.9375 66.21875 33.296875 66.21875 
Q 25.25 66.21875 20.875 63.09375 
Q 16.5 59.96875 16.5 54.203125 
Q 16.5 49.359375 19.40625 46.890625 
Q 22.3125 44.4375 30.421875 42.921875 
L 36.375 41.703125 
Q 47.40625 39.59375 52.65625 34.296875 
Q 57.90625 29 57.90625 20.125 
Q 57.90625 9.515625 50.796875 4.046875 
Q 43.703125 -1.421875 29.984375 -1.421875 
Q 24.8125 -1.421875 18.96875 -0.25 
Q 13.140625 0.921875 6.890625 3.21875 
L 6.890625 13.375 
Q 12.890625 10.015625 18.65625 8.296875 
Q 24.421875 6.59375 29.984375 6.59375 
Q 38.421875 6.59375 43.015625 9.90625 
Q 47.609375 13.234375 47.609375 19.390625 
Q 47.609375 24.75 44.3125 27.78125 
Q 41.015625 30.8125 33.5 32.328125 
L 27.484375 33.5 
Q 16.453125 35.6875 11.515625 40.375 
Q 6.59375 45.0625 6.59375 53.421875 
Q 6.59375 63.09375 13.40625 68.65625 
Q 20.21875 74.21875 32.171875 74.21875 
Q 37.3125 74.21875 42.625 73.28125 
Q 47.953125 72.359375 53.515625 70.515625 
z
" id="DejaVuSans-83"/>
       <path d="M 34.28125 27.484375 
Q 23.390625 27.484375 19.1875 25 
Q 14.984375 22.515625 14.984375 16.5 
Q 14.984375 11.71875 18.140625 8.90625 
Q 21.296875 6.109375 26.703125 6.109375 
Q 34.1875 6.109375 38.703125 11.40625 
Q 43.21875 16.703125 43.21875 25.484375 
L 43.21875 27.484375 
z
M 52.203125 31.203125 
L 52.203125 0 
L 43.21875 0 
L 43.21875 8.296875 
Q 40.140625 3.328125 35.546875 0.953125 
Q 30.953125 -1.421875 24.3125 -1.421875 
Q 15.921875 -1.421875 10.953125 3.296875 
Q 6 8.015625 6 15.921875 
Q 6 25.140625 12.171875 29.828125 
Q 18.359375 34.515625 30.609375 34.515625 
L 43.21875 34.515625 
L 43.21875 35.40625 
Q 43.21875 41.609375 39.140625 45 
Q 35.0625 48.390625 27.6875 48.390625 
Q 23 48.390625 18.546875 47.265625 
Q 14.109375 46.140625 10.015625 43.890625 
L 10.015625 52.203125 
Q 14.9375 54.109375 19.578125 55.046875 
Q 24.21875 56 28.609375 56 
Q 40.484375 56 46.34375 49.84375 
Q 52.203125 43.703125 52.203125 31.203125 
z
" id="DejaVuSans-97"/>
       <path d="M 9.421875 75.984375 
L 18.40625 75.984375 
L 18.40625 0 
L 9.421875 0 
z
" id="DejaVuSans-108"/>
       <path d="M 34.28125 27.484375 
Q 23.390625 27.484375 19.1875 25 
Q 14.984375 22.515625 14.984375 16.5 
Q 14.984375 11.71875 18.140625 8.90625 
Q 21.296875 6.109375 26.703125 6.109375 
Q 34.1875 6.109375 38.703125 11.40625 
Q 43.21875 16.703125 43.21875 25.484375 
L 43.21875 27.484375 
z
M 52.203125 31.203125 
L 52.203125 0 
L 43.21875 0 
L 43.21875 8.296875 
Q 40.140625 3.328125 35.546875 0.953125 
Q 30.953125 -1.421875 24.3125 -1.421875 
Q 15.921875 -1.421875 10.953125 3.296875 
Q 6 8.015625 6 15.921875 
Q 6 25.140625 12.171875 29.828125 
Q 18.359375 34.515625 30.609375 34.515625 
L 43.21875 34.515625 
L 43.21875 35.40625 
Q 43.21875 41.609375 39.140625 45 
Q 35.0625 48.390625 27.6875 48.390625 
Q 23 48.390625 18.546875 47.265625 
Q 14.109375 46.140625 10.015625 43.890625 
L 10.015625 52.203125 
Q 14.9375 54.109375 19.578125 55.046875 
Q 24.21875 56 28.609375 56 
Q 40.484375 56 46.34375 49.84375 
Q 52.203125 43.703125 52.203125 31.203125 
z
M 35.796875 79.984375 
L 45.515625 79.984375 
L 29.59375 61.625 
L 22.125 61.625 
z
" id="DejaVuSans-225"/>
       <path d="M 41.109375 46.296875 
Q 39.59375 47.171875 37.8125 47.578125 
Q 36.03125 48 33.890625 48 
Q 26.265625 48 22.1875 43.046875 
Q 18.109375 38.09375 18.109375 28.8125 
L 18.109375 0 
L 9.078125 0 
L 9.078125 54.6875 
L 18.109375 54.6875 
L 18.109375 46.1875 
Q 20.953125 51.171875 25.484375 53.578125 
Q 30.03125 56 36.53125 56 
Q 37.453125 56 38.578125 55.875 
Q 39.703125 55.765625 41.0625 55.515625 
z
" id="DejaVuSans-114"/>
       <path d="M 9.421875 54.6875 
L 18.40625 54.6875 
L 18.40625 0 
L 9.421875 0 
z
M 9.421875 75.984375 
L 18.40625 75.984375 
L 18.40625 64.59375 
L 9.421875 64.59375 
z
" id="DejaVuSans-105"/>
       <path id="DejaVuSans-32"/>
       <path d="M 45.40625 46.390625 
L 45.40625 75.984375 
L 54.390625 75.984375 
L 54.390625 0 
L 45.40625 0 
L 45.40625 8.203125 
Q 42.578125 3.328125 38.25 0.953125 
Q 33.9375 -1.421875 27.875 -1.421875 
Q 17.96875 -1.421875 11.734375 6.484375 
Q 5.515625 14.40625 5.515625 27.296875 
Q 5.515625 40.1875 11.734375 48.09375 
Q 17.96875 56 27.875 56 
Q 33.9375 56 38.25 53.625 
Q 42.578125 51.265625 45.40625 46.390625 
z
M 14.796875 27.296875 
Q 14.796875 17.390625 18.875 11.75 
Q 22.953125 6.109375 30.078125 6.109375 
Q 37.203125 6.109375 41.296875 11.75 
Q 45.40625 17.390625 45.40625 27.296875 
Q 45.40625 37.203125 41.296875 42.84375 
Q 37.203125 48.484375 30.078125 48.484375 
Q 22.953125 48.484375 18.875 42.84375 
Q 14.796875 37.203125 14.796875 27.296875 
z
" id="DejaVuSans-100"/>
       <path d="M 44.28125 53.078125 
L 44.28125 44.578125 
Q 40.484375 46.53125 36.375 47.5 
Q 32.28125 48.484375 27.875 48.484375 
Q 21.1875 48.484375 17.84375 46.4375 
Q 14.5 44.390625 14.5 40.28125 
Q 14.5 37.15625 16.890625 35.375 
Q 19.28125 33.59375 26.515625 31.984375 
L 29.59375 31.296875 
Q 39.15625 29.25 43.1875 25.515625 
Q 47.21875 21.78125 47.21875 15.09375 
Q 47.21875 7.46875 41.1875 3.015625 
Q 35.15625 -1.421875 24.609375 -1.421875 
Q 20.21875 -1.421875 15.453125 -0.5625 
Q 10.6875 0.296875 5.421875 2 
L 5.421875 11.28125 
Q 10.40625 8.6875 15.234375 7.390625 
Q 20.0625 6.109375 24.8125 6.109375 
Q 31.15625 6.109375 34.5625 8.28125 
Q 37.984375 10.453125 37.984375 14.40625 
Q 37.984375 18.0625 35.515625 20.015625 
Q 33.0625 21.96875 24.703125 23.78125 
L 21.578125 24.515625 
Q 13.234375 26.265625 9.515625 29.90625 
Q 5.8125 33.546875 5.8125 39.890625 
Q 5.8125 47.609375 11.28125 51.796875 
Q 16.75 56 26.8125 56 
Q 31.78125 56 36.171875 55.265625 
Q 40.578125 54.546875 44.28125 53.078125 
z
" id="DejaVuSans-115"/>
       <path d="M 56.203125 29.59375 
L 56.203125 25.203125 
L 14.890625 25.203125 
Q 15.484375 15.921875 20.484375 11.0625 
Q 25.484375 6.203125 34.421875 6.203125 
Q 39.59375 6.203125 44.453125 7.46875 
Q 49.3125 8.734375 54.109375 11.28125 
L 54.109375 2.78125 
Q 49.265625 0.734375 44.1875 -0.34375 
Q 39.109375 -1.421875 33.890625 -1.421875 
Q 20.796875 -1.421875 13.15625 6.1875 
Q 5.515625 13.8125 5.515625 26.8125 
Q 5.515625 40.234375 12.765625 48.109375 
Q 20.015625 56 32.328125 56 
Q 43.359375 56 49.78125 48.890625 
Q 56.203125 41.796875 56.203125 29.59375 
z
M 47.21875 32.234375 
Q 47.125 39.59375 43.09375 43.984375 
Q 39.0625 48.390625 32.421875 48.390625 
Q 24.90625 48.390625 20.390625 44.140625 
Q 15.875 39.890625 15.1875 32.171875 
z
" id="DejaVuSans-101"/>
       <path d="M 54.890625 54.6875 
L 35.109375 28.078125 
L 55.90625 0 
L 45.3125 0 
L 29.390625 21.484375 
L 13.484375 0 
L 2.875 0 
L 24.125 28.609375 
L 4.6875 54.6875 
L 15.28125 54.6875 
L 29.78125 35.203125 
L 44.28125 54.6875 
z
" id="DejaVuSans-120"/>
       <path d="M 37.109375 75.984375 
L 37.109375 68.5 
L 28.515625 68.5 
Q 23.6875 68.5 21.796875 66.546875 
Q 19.921875 64.59375 19.921875 59.515625 
L 19.921875 54.6875 
L 34.71875 54.6875 
L 34.71875 47.703125 
L 19.921875 47.703125 
L 19.921875 0 
L 10.890625 0 
L 10.890625 47.703125 
L 2.296875 47.703125 
L 2.296875 54.6875 
L 10.890625 54.6875 
L 10.890625 58.5 
Q 10.890625 67.625 15.140625 71.796875 
Q 19.390625 75.984375 28.609375 75.984375 
z
" id="DejaVuSans-102"/>
       <path d="M 52 44.1875 
Q 55.375 50.25 60.0625 53.125 
Q 64.75 56 71.09375 56 
Q 79.640625 56 84.28125 50.015625 
Q 88.921875 44.046875 88.921875 33.015625 
L 88.921875 0 
L 79.890625 0 
L 79.890625 32.71875 
Q 79.890625 40.578125 77.09375 44.375 
Q 74.3125 48.1875 68.609375 48.1875 
Q 61.625 48.1875 57.5625 43.546875 
Q 53.515625 38.921875 53.515625 30.90625 
L 53.515625 0 
L 44.484375 0 
L 44.484375 32.71875 
Q 44.484375 40.625 41.703125 44.40625 
Q 38.921875 48.1875 33.109375 48.1875 
Q 26.21875 48.1875 22.15625 43.53125 
Q 18.109375 38.875 18.109375 30.90625 
L 18.109375 0 
L 9.078125 0 
L 9.078125 54.6875 
L 18.109375 54.6875 
L 18.109375 46.1875 
Q 21.1875 51.21875 25.484375 53.609375 
Q 29.78125 56 35.6875 56 
Q 41.65625 56 45.828125 52.96875 
Q 50 49.953125 52 44.1875 
z
" id="DejaVuSans-109"/>
       <path d="M 48.78125 52.59375 
L 48.78125 44.1875 
Q 44.96875 46.296875 41.140625 47.34375 
Q 37.3125 48.390625 33.40625 48.390625 
Q 24.65625 48.390625 19.8125 42.84375 
Q 14.984375 37.3125 14.984375 27.296875 
Q 14.984375 17.28125 19.8125 11.734375 
Q 24.65625 6.203125 33.40625 6.203125 
Q 37.3125 6.203125 41.140625 7.25 
Q 44.96875 8.296875 48.78125 10.40625 
L 48.78125 2.09375 
Q 45.015625 0.34375 40.984375 -0.53125 
Q 36.96875 -1.421875 32.421875 -1.421875 
Q 20.0625 -1.421875 12.78125 6.34375 
Q 5.515625 14.109375 5.515625 27.296875 
Q 5.515625 40.671875 12.859375 48.328125 
Q 20.21875 56 33.015625 56 
Q 37.15625 56 41.109375 55.140625 
Q 45.0625 54.296875 48.78125 52.59375 
z
" id="DejaVuSans-99"/>
       <path d="M 18.109375 8.203125 
L 18.109375 -20.796875 
L 9.078125 -20.796875 
L 9.078125 54.6875 
L 18.109375 54.6875 
L 18.109375 46.390625 
Q 20.953125 51.265625 25.265625 53.625 
Q 29.59375 56 35.59375 56 
Q 45.5625 56 51.78125 48.09375 
Q 58.015625 40.1875 58.015625 27.296875 
Q 58.015625 14.40625 51.78125 6.484375 
Q 45.5625 -1.421875 35.59375 -1.421875 
Q 29.59375 -1.421875 25.265625 0.953125 
Q 20.953125 3.328125 18.109375 8.203125 
z
M 48.6875 27.296875 
Q 48.6875 37.203125 44.609375 42.84375 
Q 40.53125 48.484375 33.40625 48.484375 
Q 26.265625 48.484375 22.1875 42.84375 
Q 18.109375 37.203125 18.109375 27.296875 
Q 18.109375 17.390625 22.1875 11.75 
Q 26.265625 6.109375 33.40625 6.109375 
Q 40.53125 6.109375 44.609375 11.75 
Q 48.6875 17.390625 48.6875 27.296875 
z
" id="DejaVuSans-112"/>
       <path d="M 18.3125 70.21875 
L 18.3125 54.6875 
L 36.8125 54.6875 
L 36.8125 47.703125 
L 18.3125 47.703125 
L 18.3125 18.015625 
Q 18.3125 11.328125 20.140625 9.421875 
Q 21.96875 7.515625 27.59375 7.515625 
L 36.8125 7.515625 
L 36.8125 0 
L 27.59375 0 
Q 17.1875 0 13.234375 3.875 
Q 9.28125 7.765625 9.28125 18.015625 
L 9.28125 47.703125 
L 2.6875 47.703125 
L 2.6875 54.6875 
L 9.28125 54.6875 
L 9.28125 70.21875 
z
" id="DejaVuSans-116"/>
       <path d="M 45.40625 27.984375 
Q 45.40625 37.75 41.375 43.109375 
Q 37.359375 48.484375 30.078125 48.484375 
Q 22.859375 48.484375 18.828125 43.109375 
Q 14.796875 37.75 14.796875 27.984375 
Q 14.796875 18.265625 18.828125 12.890625 
Q 22.859375 7.515625 30.078125 7.515625 
Q 37.359375 7.515625 41.375 12.890625 
Q 45.40625 18.265625 45.40625 27.984375 
z
M 54.390625 6.78125 
Q 54.390625 -7.171875 48.1875 -13.984375 
Q 42 -20.796875 29.203125 -20.796875 
Q 24.46875 -20.796875 20.265625 -20.09375 
Q 16.0625 -19.390625 12.109375 -17.921875 
L 12.109375 -9.1875 
Q 16.0625 -11.328125 19.921875 -12.34375 
Q 23.78125 -13.375 27.78125 -13.375 
Q 36.625 -13.375 41.015625 -8.765625 
Q 45.40625 -4.15625 45.40625 5.171875 
L 45.40625 9.625 
Q 42.625 4.78125 38.28125 2.390625 
Q 33.9375 0 27.875 0 
Q 17.828125 0 11.671875 7.65625 
Q 5.515625 15.328125 5.515625 27.984375 
Q 5.515625 40.671875 11.671875 48.328125 
Q 17.828125 56 27.875 56 
Q 33.9375 56 38.28125 53.609375 
Q 42.625 51.21875 45.40625 46.390625 
L 45.40625 54.6875 
L 54.390625 54.6875 
z
" id="DejaVuSans-103"/>
       <path d="M 8.5 21.578125 
L 8.5 54.6875 
L 17.484375 54.6875 
L 17.484375 21.921875 
Q 17.484375 14.15625 20.5 10.265625 
Q 23.53125 6.390625 29.59375 6.390625 
Q 36.859375 6.390625 41.078125 11.03125 
Q 45.3125 15.671875 45.3125 23.6875 
L 45.3125 54.6875 
L 54.296875 54.6875 
L 54.296875 0 
L 45.3125 0 
L 45.3125 8.40625 
Q 42.046875 3.421875 37.71875 1 
Q 33.40625 -1.421875 27.6875 -1.421875 
Q 18.265625 -1.421875 13.375 4.4375 
Q 8.5 10.296875 8.5 21.578125 
z
M 31.109375 56 
z
" id="DejaVuSans-117"/>
       <path d="M 31 75.875 
Q 24.46875 64.65625 21.28125 53.65625 
Q 18.109375 42.671875 18.109375 31.390625 
Q 18.109375 20.125 21.3125 9.0625 
Q 24.515625 -2 31 -13.1875 
L 23.1875 -13.1875 
Q 15.875 -1.703125 12.234375 9.375 
Q 8.59375 20.453125 8.59375 31.390625 
Q 8.59375 42.28125 12.203125 53.3125 
Q 15.828125 64.359375 23.1875 75.875 
z
" id="DejaVuSans-40"/>
       <path d="M 72.703125 32.078125 
Q 68.453125 32.078125 66.03125 28.46875 
Q 63.625 24.859375 63.625 18.40625 
Q 63.625 12.0625 66.03125 8.421875 
Q 68.453125 4.78125 72.703125 4.78125 
Q 76.859375 4.78125 79.265625 8.421875 
Q 81.6875 12.0625 81.6875 18.40625 
Q 81.6875 24.8125 79.265625 28.4375 
Q 76.859375 32.078125 72.703125 32.078125 
z
M 72.703125 38.28125 
Q 80.421875 38.28125 84.953125 32.90625 
Q 89.5 27.546875 89.5 18.40625 
Q 89.5 9.28125 84.9375 3.921875 
Q 80.375 -1.421875 72.703125 -1.421875 
Q 64.890625 -1.421875 60.34375 3.921875 
Q 55.8125 9.28125 55.8125 18.40625 
Q 55.8125 27.59375 60.375 32.9375 
Q 64.9375 38.28125 72.703125 38.28125 
z
M 22.3125 68.015625 
Q 18.109375 68.015625 15.6875 64.375 
Q 13.28125 60.75 13.28125 54.390625 
Q 13.28125 47.953125 15.671875 44.328125 
Q 18.0625 40.71875 22.3125 40.71875 
Q 26.5625 40.71875 28.96875 44.328125 
Q 31.390625 47.953125 31.390625 54.390625 
Q 31.390625 60.6875 28.953125 64.34375 
Q 26.515625 68.015625 22.3125 68.015625 
z
M 66.40625 74.21875 
L 74.21875 74.21875 
L 28.609375 -1.421875 
L 20.796875 -1.421875 
z
M 22.3125 74.21875 
Q 30.03125 74.21875 34.609375 68.875 
Q 39.203125 63.53125 39.203125 54.390625 
Q 39.203125 45.171875 34.640625 39.84375 
Q 30.078125 34.515625 22.3125 34.515625 
Q 14.546875 34.515625 10.03125 39.859375 
Q 5.515625 45.21875 5.515625 54.390625 
Q 5.515625 63.484375 10.046875 68.84375 
Q 14.59375 74.21875 22.3125 74.21875 
z
" id="DejaVuSans-37"/>
       <path d="M 8.015625 75.875 
L 15.828125 75.875 
Q 23.140625 64.359375 26.78125 53.3125 
Q 30.421875 42.28125 30.421875 31.390625 
Q 30.421875 20.453125 26.78125 9.375 
Q 23.140625 -1.703125 15.828125 -13.1875 
L 8.015625 -13.1875 
Q 14.5 -2 17.703125 9.0625 
Q 20.90625 20.125 20.90625 31.390625 
Q 20.90625 42.671875 17.703125 53.65625 
Q 14.5 64.65625 8.015625 75.875 
z
" id="DejaVuSans-41"/>
      </defs>
      <use xlink:href="#DejaVuSans-83"/>
      <use x="63.476562" xlink:href="#DejaVuSans-97"/>
      <use x="124.755859" xlink:href="#DejaVuSans-108"/>
      <use x="152.539062" xlink:href="#DejaVuSans-225"/>
      <use x="213.818359" xlink:href="#DejaVuSans-114"/>
      <use x="254.931641" xlink:href="#DejaVuSans-105"/>
      <use x="282.714844" xlink:href="#DejaVuSans-111"/>
      <use x="343.896484" xlink:href="#DejaVuSans-32"/>
      <use x="375.683594" xlink:href="#DejaVuSans-100"/>
      <use x="439.160156" xlink:href="#DejaVuSans-111"/>
      <use x="500.341797" xlink:href="#DejaVuSans-32"/>
      <use x="532.128906" xlink:href="#DejaVuSans-115"/>
      <use x="584.228516" xlink:href="#DejaVuSans-101"/>
      <use x="644.001953" xlink:href="#DejaVuSans-120"/>
      <use x="700.056641" xlink:href="#DejaVuSans-111"/>
      <use x="761.238281" xlink:href="#DejaVuSans-32"/>
      <use x="793.025391" xlink:href="#DejaVuSans-102"/>
      <use x="828.230469" xlink:href="#DejaVuSans-101"/>
      <use x="889.753906" xlink:href="#DejaVuSans-109"/>
      <use x="987.166016" xlink:href="#DejaVuSans-105"/>
      <use x="1014.949219" xlink:href="#DejaVuSans-110"/>
      <use x="1078.328125" xlink:href="#DejaVuSans-105"/>
      <use x="1106.111328" xlink:href="#DejaVuSans-110"/>
      <use x="1169.490234" xlink:href="#DejaVuSans-111"/>
      <use x="1230.671875" xlink:href="#DejaVuSans-32"/>
      <use x="1262.458984" xlink:href="#DejaVuSans-99"/>
      <use x="1317.439453" xlink:href="#DejaVuSans-111"/>
      <use x="1378.621094" xlink:href="#DejaVuSans-109"/>
      <use x="1476.033203" xlink:href="#DejaVuSans-111"/>
      <use x="1537.214844" xlink:href="#DejaVuSans-32"/>
      <use x="1569.001953" xlink:href="#DejaVuSans-112"/>
      <use x="1632.478516" xlink:href="#DejaVuSans-111"/>
      <use x="1693.660156" xlink:href="#DejaVuSans-114"/>
      <use x="1732.523438" xlink:href="#DejaVuSans-99"/>
      <use x="1787.503906" xlink:href="#DejaVuSans-101"/>
      <use x="1849.027344" xlink:href="#DejaVuSans-110"/>
      <use x="1912.40625" xlink:href="#DejaVuSans-116"/>
      <use x="1951.615234" xlink:href="#DejaVuSans-97"/>
      <use x="2012.894531" xlink:href="#DejaVuSans-103"/>
      <use x="2076.371094" xlink:href="#DejaVuSans-101"/>
      <use x="2137.894531" xlink:href="#DejaVuSans-109"/>
      <use x="2235.306641" xlink:href="#DejaVuSans-32"/>
      <use x="2267.09375" xlink:href="#DejaVuSans-100"/>
      <use x="2330.570312" xlink:href="#DejaVuSans-111"/>
      <use x="2391.751953" xlink:href="#DejaVuSans-32"/>
      <use x="2423.539062" xlink:href="#DejaVuSans-115"/>
      <use x="2475.638672" xlink:href="#DejaVuSans-97"/>
      <use x="2536.917969" xlink:href="#DejaVuSans-108"/>
      <use x="2564.701172" xlink:href="#DejaVuSans-225"/>
      <use x="2625.980469" xlink:href="#DejaVuSans-114"/>
      <use x="2667.09375" xlink:href="#DejaVuSans-105"/>
      <use x="2694.876953" xlink:href="#DejaVuSans-111"/>
      <use x="2756.058594" xlink:href="#DejaVuSans-32"/>
      <use x="2787.845703" xlink:href="#DejaVuSans-100"/>
      <use x="2851.322266" xlink:href="#DejaVuSans-111"/>
      <use x="2912.503906" xlink:href="#DejaVuSans-32"/>
      <use x="2944.291016" xlink:href="#DejaVuSans-115"/>
      <use x="2996.390625" xlink:href="#DejaVuSans-101"/>
      <use x="3056.164062" xlink:href="#DejaVuSans-120"/>
      <use x="3112.21875" xlink:href="#DejaVuSans-111"/>
      <use x="3173.400391" xlink:href="#DejaVuSans-32"/>
      <use x="3205.1875" xlink:href="#DejaVuSans-109"/>
      <use x="3302.599609" xlink:href="#DejaVuSans-97"/>
      <use x="3363.878906" xlink:href="#DejaVuSans-115"/>
      <use x="3415.978516" xlink:href="#DejaVuSans-99"/>
      <use x="3470.958984" xlink:href="#DejaVuSans-117"/>
      <use x="3534.337891" xlink:href="#DejaVuSans-108"/>
      <use x="3562.121094" xlink:href="#DejaVuSans-105"/>
      <use x="3589.904297" xlink:href="#DejaVuSans-110"/>
      <use x="3653.283203" xlink:href="#DejaVuSans-111"/>
      <use x="3714.464844" xlink:href="#DejaVuSans-32"/>
      <use x="3746.251953" xlink:href="#DejaVuSans-40"/>
      <use x="3785.265625" xlink:href="#DejaVuSans-37"/>
      <use x="3880.285156" xlink:href="#DejaVuSans-41"/>
     </g>
    </g>
   </g>
   <g id="line2d_35">
    <path clip-path="url(#p36e2480a35)" d="M 66.366761 258.217749 
L 82.219034 246.055243 
L 98.071307 240.294056 
L 113.92358 228.771682 
L 129.775852 221.090099 
L 145.628125 212.768385 
L 161.480398 209.567725 
L 177.33267 203.166406 
L 193.184943 199.325615 
L 209.037216 192.924296 
L 224.889489 189.083505 
L 240.741761 182.682186 
L 256.594034 171.799944 
L 272.446307 165.398625 
L 288.29858 158.997306 
L 304.150852 159.637438 
L 320.003125 164.118361 
L 335.855398 157.717042 
L 351.70767 159.637438 
L 367.559943 159.637438 
L 383.412216 168.599284 
L 399.264489 162.838097 
L 415.116761 158.997306 
L 430.969034 149.395328 
L 446.821307 134.032162 
L 462.67358 128.270975 
L 478.525852 120.589393 
L 494.378125 125.710448 
L 510.230398 134.032162 
L 526.08267 123.790052 
L 541.934943 122.509788 
L 557.787216 109.067019 
L 573.639489 99.46504 
" style="fill:none;stroke:#008000;stroke-linecap:square;stroke-opacity:0.75;stroke-width:1.5;"/>
   </g>
   <g id="patch_3">
    <path d="M 41.003125 339.066406 
L 41.003125 67.266406 
" style="fill:none;stroke:#000000;stroke-linecap:square;stroke-linejoin:miter;stroke-width:0.8;"/>
   </g>
   <g id="patch_4">
    <path d="M 599.003125 339.066406 
L 599.003125 67.266406 
" style="fill:none;stroke:#000000;stroke-linecap:square;stroke-linejoin:miter;stroke-width:0.8;"/>
   </g>
   <g id="patch_5">
    <path d="M 41.003125 339.066406 
L 599.003125 339.066406 
" style="fill:none;stroke:#000000;stroke-linecap:square;stroke-linejoin:miter;stroke-width:0.8;"/>
   </g>
   <g id="patch_6">
    <path d="M 41.003125 67.266406 
L 599.003125 67.266406 
" style="fill:none;stroke:#000000;stroke-linecap:square;stroke-linejoin:miter;stroke-width:0.8;"/>
   </g>
   <g id="line2d_36">
    <path clip-path="url(#p36e2480a35)" d="M 66.366761 317.109882 
L 82.219034 317.109882 
L 98.071307 306.867772 
L 113.92358 299.18619 
L 129.775852 296.625662 
L 145.628125 293.425003 
L 161.480398 287.023684 
L 177.33267 281.262497 
L 193.184943 267.179595 
L 209.037216 251.81643 
L 224.889489 253.096694 
L 240.741761 244.774979 
L 256.594034 237.733528 
L 272.446307 230.051946 
L 288.29858 223.010495 
L 304.150852 225.571022 
L 320.003125 225.571022 
L 335.855398 221.090099 
L 351.70767 216.609176 
L 367.559943 219.169703 
L 383.412216 231.332209 
L 399.264489 231.972341 
L 415.116761 226.211154 
L 430.969034 208.927593 
L 446.821307 203.166406 
L 462.67358 206.367066 
L 478.525852 207.007198 
L 494.378125 196.124955 
L 510.230398 200.605879 
L 526.08267 213.408516 
L 541.934943 194.844692 
L 557.787216 178.841394 
L 573.639489 187.803241 
" style="fill:none;stroke:#ff0000;stroke-linecap:square;stroke-opacity:0.75;stroke-width:1.5;"/>
   </g>
   <g id="line2d_37">
    <path clip-path="url(#p36e2480a35)" d="M 66.366761 326.711861 
L 82.219034 326.071729 
L 98.071307 326.711861 
L 113.92358 305.587508 
L 129.775852 309.4283 
L 145.628125 310.068432 
L 161.480398 308.148036 
L 177.33267 300.466453 
L 193.184943 291.504607 
L 209.037216 295.345398 
L 224.889489 288.944079 
L 240.741761 281.902629 
L 256.594034 274.221046 
L 272.446307 269.099991 
L 288.29858 258.857881 
L 304.150852 260.778276 
L 320.003125 256.937485 
L 335.855398 249.255902 
L 351.70767 246.055243 
L 367.559943 239.013792 
L 383.412216 242.214451 
L 399.264489 221.730231 
L 415.116761 219.809835 
L 430.969034 212.768385 
L 446.821307 223.010495 
L 462.67358 223.650627 
L 478.525852 207.007198 
L 494.378125 219.809835 
L 510.230398 213.408516 
L 526.08267 210.847989 
L 541.934943 219.169703 
L 557.787216 200.605879 
L 573.639489 203.806538 
" style="fill:none;stroke:#00bfbf;stroke-linecap:square;stroke-opacity:0.75;stroke-width:1.5;"/>
   </g>
   <g id="line2d_38">
    <path clip-path="url(#p36e2480a35)" d="M 66.366761 302.386849 
L 82.219034 310.068432 
L 98.071307 313.269091 
L 113.92358 297.265794 
L 129.775852 294.705266 
L 145.628125 296.625662 
L 161.480398 299.826321 
L 177.33267 298.546058 
L 193.184943 292.144739 
L 209.037216 291.504607 
L 224.889489 281.262497 
L 240.741761 282.54276 
L 256.594034 277.421705 
L 272.446307 274.861178 
L 288.29858 258.857881 
L 304.150852 267.819727 
L 320.003125 276.141442 
L 335.855398 272.30065 
L 351.70767 276.141442 
L 367.559943 254.376957 
L 383.412216 255.657221 
L 399.264489 247.975638 
L 415.116761 239.013792 
L 430.969034 231.972341 
L 446.821307 224.93089 
L 462.67358 223.010495 
L 478.525852 212.128253 
L 494.378125 223.650627 
L 510.230398 224.290759 
L 526.08267 207.647329 
L 541.934943 208.287461 
L 557.787216 208.927593 
L 573.639489 209.567725 
" style="fill:none;stroke:#bf00bf;stroke-linecap:square;stroke-opacity:0.75;stroke-width:1.5;"/>
   </g>
   <g id="legend_1">
    <g id="patch_7">
     <path d="M 578.103125 336.745406 
L 806.945313 336.745406 
Q 808.945313 336.745406 808.945313 334.745406 
L 808.945313 218.320406 
Q 808.945313 216.320406 806.945313 216.320406 
L 578.103125 216.320406 
Q 576.103125 216.320406 576.103125 218.320406 
L 576.103125 334.745406 
Q 576.103125 336.745406 578.103125 336.745406 
z
" style="fill:#ffffff;opacity:0.8;stroke:#cccccc;stroke-linejoin:miter;"/>
    </g>
    <g id="line2d_39">
     <path d="M 580.103125 224.418844 
L 600.103125 224.418844 
" style="fill:none;stroke:#000000;stroke-linecap:square;stroke-width:3;"/>
    </g>
    <g id="line2d_40"/>
    <g id="text_19">
     <!-- Total, 16 years and older, mean: 74.2% -->
     <g transform="translate(608.103125 227.918844)scale(0.1 -0.1)">
      <defs>
       <path d="M -0.296875 72.90625 
L 61.375 72.90625 
L 61.375 64.59375 
L 35.5 64.59375 
L 35.5 0 
L 25.59375 0 
L 25.59375 64.59375 
L -0.296875 64.59375 
z
" id="DejaVuSans-84"/>
       <path d="M 11.71875 12.40625 
L 22.015625 12.40625 
L 22.015625 4 
L 14.015625 -11.625 
L 7.71875 -11.625 
L 11.71875 4 
z
" id="DejaVuSans-44"/>
       <path d="M 32.171875 -5.078125 
Q 28.375 -14.84375 24.75 -17.8125 
Q 21.140625 -20.796875 15.09375 -20.796875 
L 7.90625 -20.796875 
L 7.90625 -13.28125 
L 13.1875 -13.28125 
Q 16.890625 -13.28125 18.9375 -11.515625 
Q 21 -9.765625 23.484375 -3.21875 
L 25.09375 0.875 
L 2.984375 54.6875 
L 12.5 54.6875 
L 29.59375 11.921875 
L 46.6875 54.6875 
L 56.203125 54.6875 
z
" id="DejaVuSans-121"/>
       <path d="M 11.71875 12.40625 
L 22.015625 12.40625 
L 22.015625 0 
L 11.71875 0 
z
M 11.71875 51.703125 
L 22.015625 51.703125 
L 22.015625 39.3125 
L 11.71875 39.3125 
z
" id="DejaVuSans-58"/>
       <path d="M 37.796875 64.3125 
L 12.890625 25.390625 
L 37.796875 25.390625 
z
M 35.203125 72.90625 
L 47.609375 72.90625 
L 47.609375 25.390625 
L 58.015625 25.390625 
L 58.015625 17.1875 
L 47.609375 17.1875 
L 47.609375 0 
L 37.796875 0 
L 37.796875 17.1875 
L 4.890625 17.1875 
L 4.890625 26.703125 
z
" id="DejaVuSans-52"/>
       <path d="M 10.6875 12.40625 
L 21 12.40625 
L 21 0 
L 10.6875 0 
z
" id="DejaVuSans-46"/>
      </defs>
      <use xlink:href="#DejaVuSans-84"/>
      <use x="44.083984" xlink:href="#DejaVuSans-111"/>
      <use x="105.265625" xlink:href="#DejaVuSans-116"/>
      <use x="144.474609" xlink:href="#DejaVuSans-97"/>
      <use x="205.753906" xlink:href="#DejaVuSans-108"/>
      <use x="233.537109" xlink:href="#DejaVuSans-44"/>
      <use x="265.324219" xlink:href="#DejaVuSans-32"/>
      <use x="297.111328" xlink:href="#DejaVuSans-49"/>
      <use x="360.734375" xlink:href="#DejaVuSans-54"/>
      <use x="424.357422" xlink:href="#DejaVuSans-32"/>
      <use x="456.144531" xlink:href="#DejaVuSans-121"/>
      <use x="515.324219" xlink:href="#DejaVuSans-101"/>
      <use x="576.847656" xlink:href="#DejaVuSans-97"/>
      <use x="638.126953" xlink:href="#DejaVuSans-114"/>
      <use x="679.240234" xlink:href="#DejaVuSans-115"/>
      <use x="731.339844" xlink:href="#DejaVuSans-32"/>
      <use x="763.126953" xlink:href="#DejaVuSans-97"/>
      <use x="824.40625" xlink:href="#DejaVuSans-110"/>
      <use x="887.785156" xlink:href="#DejaVuSans-100"/>
      <use x="951.261719" xlink:href="#DejaVuSans-32"/>
      <use x="983.048828" xlink:href="#DejaVuSans-111"/>
      <use x="1044.230469" xlink:href="#DejaVuSans-108"/>
      <use x="1072.013672" xlink:href="#DejaVuSans-100"/>
      <use x="1135.490234" xlink:href="#DejaVuSans-101"/>
      <use x="1197.013672" xlink:href="#DejaVuSans-114"/>
      <use x="1238.126953" xlink:href="#DejaVuSans-44"/>
      <use x="1269.914062" xlink:href="#DejaVuSans-32"/>
      <use x="1301.701172" xlink:href="#DejaVuSans-109"/>
      <use x="1399.113281" xlink:href="#DejaVuSans-101"/>
      <use x="1460.636719" xlink:href="#DejaVuSans-97"/>
      <use x="1521.916016" xlink:href="#DejaVuSans-110"/>
      <use x="1585.294922" xlink:href="#DejaVuSans-58"/>
      <use x="1618.986328" xlink:href="#DejaVuSans-32"/>
      <use x="1650.773438" xlink:href="#DejaVuSans-55"/>
      <use x="1714.396484" xlink:href="#DejaVuSans-52"/>
      <use x="1778.019531" xlink:href="#DejaVuSans-46"/>
      <use x="1809.806641" xlink:href="#DejaVuSans-50"/>
      <use x="1873.429688" xlink:href="#DejaVuSans-37"/>
     </g>
    </g>
    <g id="line2d_41">
     <path d="M 580.103125 239.096969 
L 600.103125 239.096969 
" style="fill:none;stroke:#ffa500;stroke-linecap:square;stroke-opacity:0.75;stroke-width:1.5;"/>
    </g>
    <g id="line2d_42"/>
    <g id="text_20">
     <!-- 16-19 years, mean: 91.1% -->
     <g transform="translate(608.103125 242.596969)scale(0.1 -0.1)">
      <defs>
       <path d="M 4.890625 31.390625 
L 31.203125 31.390625 
L 31.203125 23.390625 
L 4.890625 23.390625 
z
" id="DejaVuSans-45"/>
      </defs>
      <use xlink:href="#DejaVuSans-49"/>
      <use x="63.623047" xlink:href="#DejaVuSans-54"/>
      <use x="127.246094" xlink:href="#DejaVuSans-45"/>
      <use x="163.330078" xlink:href="#DejaVuSans-49"/>
      <use x="226.953125" xlink:href="#DejaVuSans-57"/>
      <use x="290.576172" xlink:href="#DejaVuSans-32"/>
      <use x="322.363281" xlink:href="#DejaVuSans-121"/>
      <use x="381.542969" xlink:href="#DejaVuSans-101"/>
      <use x="443.066406" xlink:href="#DejaVuSans-97"/>
      <use x="504.345703" xlink:href="#DejaVuSans-114"/>
      <use x="545.458984" xlink:href="#DejaVuSans-115"/>
      <use x="597.558594" xlink:href="#DejaVuSans-44"/>
      <use x="629.345703" xlink:href="#DejaVuSans-32"/>
      <use x="661.132812" xlink:href="#DejaVuSans-109"/>
      <use x="758.544922" xlink:href="#DejaVuSans-101"/>
      <use x="820.068359" xlink:href="#DejaVuSans-97"/>
      <use x="881.347656" xlink:href="#DejaVuSans-110"/>
      <use x="944.726562" xlink:href="#DejaVuSans-58"/>
      <use x="978.417969" xlink:href="#DejaVuSans-32"/>
      <use x="1010.205078" xlink:href="#DejaVuSans-57"/>
      <use x="1073.828125" xlink:href="#DejaVuSans-49"/>
      <use x="1137.451172" xlink:href="#DejaVuSans-46"/>
      <use x="1169.238281" xlink:href="#DejaVuSans-49"/>
      <use x="1232.861328" xlink:href="#DejaVuSans-37"/>
     </g>
    </g>
    <g id="line2d_43">
     <path d="M 580.103125 253.775094 
L 600.103125 253.775094 
" style="fill:none;stroke:#0000ff;stroke-linecap:square;stroke-opacity:0.75;stroke-width:1.5;"/>
    </g>
    <g id="line2d_44"/>
    <g id="text_21">
     <!-- 20-24 years, mean: 90.0% -->
     <g transform="translate(608.103125 257.275094)scale(0.1 -0.1)">
      <use xlink:href="#DejaVuSans-50"/>
      <use x="63.623047" xlink:href="#DejaVuSans-48"/>
      <use x="127.246094" xlink:href="#DejaVuSans-45"/>
      <use x="163.330078" xlink:href="#DejaVuSans-50"/>
      <use x="226.953125" xlink:href="#DejaVuSans-52"/>
      <use x="290.576172" xlink:href="#DejaVuSans-32"/>
      <use x="322.363281" xlink:href="#DejaVuSans-121"/>
      <use x="381.542969" xlink:href="#DejaVuSans-101"/>
      <use x="443.066406" xlink:href="#DejaVuSans-97"/>
      <use x="504.345703" xlink:href="#DejaVuSans-114"/>
      <use x="545.458984" xlink:href="#DejaVuSans-115"/>
      <use x="597.558594" xlink:href="#DejaVuSans-44"/>
      <use x="629.345703" xlink:href="#DejaVuSans-32"/>
      <use x="661.132812" xlink:href="#DejaVuSans-109"/>
      <use x="758.544922" xlink:href="#DejaVuSans-101"/>
      <use x="820.068359" xlink:href="#DejaVuSans-97"/>
      <use x="881.347656" xlink:href="#DejaVuSans-110"/>
      <use x="944.726562" xlink:href="#DejaVuSans-58"/>
      <use x="978.417969" xlink:href="#DejaVuSans-32"/>
      <use x="1010.205078" xlink:href="#DejaVuSans-57"/>
      <use x="1073.828125" xlink:href="#DejaVuSans-48"/>
      <use x="1137.451172" xlink:href="#DejaVuSans-46"/>
      <use x="1169.238281" xlink:href="#DejaVuSans-48"/>
      <use x="1232.861328" xlink:href="#DejaVuSans-37"/>
     </g>
    </g>
    <g id="line2d_45">
     <path d="M 580.103125 268.453219 
L 600.103125 268.453219 
" style="fill:none;stroke:#008000;stroke-linecap:square;stroke-opacity:0.75;stroke-width:1.5;"/>
    </g>
    <g id="line2d_46"/>
    <g id="text_22">
     <!-- 25-34 years, mean: 81.2% -->
     <g transform="translate(608.103125 271.953219)scale(0.1 -0.1)">
      <defs>
       <path d="M 40.578125 39.3125 
Q 47.65625 37.796875 51.625 33 
Q 55.609375 28.21875 55.609375 21.1875 
Q 55.609375 10.40625 48.1875 4.484375 
Q 40.765625 -1.421875 27.09375 -1.421875 
Q 22.515625 -1.421875 17.65625 -0.515625 
Q 12.796875 0.390625 7.625 2.203125 
L 7.625 11.71875 
Q 11.71875 9.328125 16.59375 8.109375 
Q 21.484375 6.890625 26.8125 6.890625 
Q 36.078125 6.890625 40.9375 10.546875 
Q 45.796875 14.203125 45.796875 21.1875 
Q 45.796875 27.640625 41.28125 31.265625 
Q 36.765625 34.90625 28.71875 34.90625 
L 20.21875 34.90625 
L 20.21875 43.015625 
L 29.109375 43.015625 
Q 36.375 43.015625 40.234375 45.921875 
Q 44.09375 48.828125 44.09375 54.296875 
Q 44.09375 59.90625 40.109375 62.90625 
Q 36.140625 65.921875 28.71875 65.921875 
Q 24.65625 65.921875 20.015625 65.03125 
Q 15.375 64.15625 9.8125 62.3125 
L 9.8125 71.09375 
Q 15.4375 72.65625 20.34375 73.4375 
Q 25.25 74.21875 29.59375 74.21875 
Q 40.828125 74.21875 47.359375 69.109375 
Q 53.90625 64.015625 53.90625 55.328125 
Q 53.90625 49.265625 50.4375 45.09375 
Q 46.96875 40.921875 40.578125 39.3125 
z
" id="DejaVuSans-51"/>
      </defs>
      <use xlink:href="#DejaVuSans-50"/>
      <use x="63.623047" xlink:href="#DejaVuSans-53"/>
      <use x="127.246094" xlink:href="#DejaVuSans-45"/>
      <use x="163.330078" xlink:href="#DejaVuSans-51"/>
      <use x="226.953125" xlink:href="#DejaVuSans-52"/>
      <use x="290.576172" xlink:href="#DejaVuSans-32"/>
      <use x="322.363281" xlink:href="#DejaVuSans-121"/>
      <use x="381.542969" xlink:href="#DejaVuSans-101"/>
      <use x="443.066406" xlink:href="#DejaVuSans-97"/>
      <use x="504.345703" xlink:href="#DejaVuSans-114"/>
      <use x="545.458984" xlink:href="#DejaVuSans-115"/>
      <use x="597.558594" xlink:href="#DejaVuSans-44"/>
      <use x="629.345703" xlink:href="#DejaVuSans-32"/>
      <use x="661.132812" xlink:href="#DejaVuSans-109"/>
      <use x="758.544922" xlink:href="#DejaVuSans-101"/>
      <use x="820.068359" xlink:href="#DejaVuSans-97"/>
      <use x="881.347656" xlink:href="#DejaVuSans-110"/>
      <use x="944.726562" xlink:href="#DejaVuSans-58"/>
      <use x="978.417969" xlink:href="#DejaVuSans-32"/>
      <use x="1010.205078" xlink:href="#DejaVuSans-56"/>
      <use x="1073.828125" xlink:href="#DejaVuSans-49"/>
      <use x="1137.451172" xlink:href="#DejaVuSans-46"/>
      <use x="1169.238281" xlink:href="#DejaVuSans-50"/>
      <use x="1232.861328" xlink:href="#DejaVuSans-37"/>
     </g>
    </g>
    <g id="line2d_47">
     <path d="M 580.103125 283.131344 
L 600.103125 283.131344 
" style="fill:none;stroke:#ff0000;stroke-linecap:square;stroke-opacity:0.75;stroke-width:1.5;"/>
    </g>
    <g id="line2d_48"/>
    <g id="text_23">
     <!-- 35-44 years, mean: 70.4% -->
     <g transform="translate(608.103125 286.631344)scale(0.1 -0.1)">
      <use xlink:href="#DejaVuSans-51"/>
      <use x="63.623047" xlink:href="#DejaVuSans-53"/>
      <use x="127.246094" xlink:href="#DejaVuSans-45"/>
      <use x="163.330078" xlink:href="#DejaVuSans-52"/>
      <use x="226.953125" xlink:href="#DejaVuSans-52"/>
      <use x="290.576172" xlink:href="#DejaVuSans-32"/>
      <use x="322.363281" xlink:href="#DejaVuSans-121"/>
      <use x="381.542969" xlink:href="#DejaVuSans-101"/>
      <use x="443.066406" xlink:href="#DejaVuSans-97"/>
      <use x="504.345703" xlink:href="#DejaVuSans-114"/>
      <use x="545.458984" xlink:href="#DejaVuSans-115"/>
      <use x="597.558594" xlink:href="#DejaVuSans-44"/>
      <use x="629.345703" xlink:href="#DejaVuSans-32"/>
      <use x="661.132812" xlink:href="#DejaVuSans-109"/>
      <use x="758.544922" xlink:href="#DejaVuSans-101"/>
      <use x="820.068359" xlink:href="#DejaVuSans-97"/>
      <use x="881.347656" xlink:href="#DejaVuSans-110"/>
      <use x="944.726562" xlink:href="#DejaVuSans-58"/>
      <use x="978.417969" xlink:href="#DejaVuSans-32"/>
      <use x="1010.205078" xlink:href="#DejaVuSans-55"/>
      <use x="1073.828125" xlink:href="#DejaVuSans-48"/>
      <use x="1137.451172" xlink:href="#DejaVuSans-46"/>
      <use x="1169.238281" xlink:href="#DejaVuSans-52"/>
      <use x="1232.861328" xlink:href="#DejaVuSans-37"/>
     </g>
    </g>
    <g id="line2d_49">
     <path d="M 580.103125 297.809469 
L 600.103125 297.809469 
" style="fill:none;stroke:#00bfbf;stroke-linecap:square;stroke-opacity:0.75;stroke-width:1.5;"/>
    </g>
    <g id="line2d_50"/>
    <g id="text_24">
     <!-- 45-54 years, mean: 67.4% -->
     <g transform="translate(608.103125 301.309469)scale(0.1 -0.1)">
      <use xlink:href="#DejaVuSans-52"/>
      <use x="63.623047" xlink:href="#DejaVuSans-53"/>
      <use x="127.246094" xlink:href="#DejaVuSans-45"/>
      <use x="163.330078" xlink:href="#DejaVuSans-53"/>
      <use x="226.953125" xlink:href="#DejaVuSans-52"/>
      <use x="290.576172" xlink:href="#DejaVuSans-32"/>
      <use x="322.363281" xlink:href="#DejaVuSans-121"/>
      <use x="381.542969" xlink:href="#DejaVuSans-101"/>
      <use x="443.066406" xlink:href="#DejaVuSans-97"/>
      <use x="504.345703" xlink:href="#DejaVuSans-114"/>
      <use x="545.458984" xlink:href="#DejaVuSans-115"/>
      <use x="597.558594" xlink:href="#DejaVuSans-44"/>
      <use x="629.345703" xlink:href="#DejaVuSans-32"/>
      <use x="661.132812" xlink:href="#DejaVuSans-109"/>
      <use x="758.544922" xlink:href="#DejaVuSans-101"/>
      <use x="820.068359" xlink:href="#DejaVuSans-97"/>
      <use x="881.347656" xlink:href="#DejaVuSans-110"/>
      <use x="944.726562" xlink:href="#DejaVuSans-58"/>
      <use x="978.417969" xlink:href="#DejaVuSans-32"/>
      <use x="1010.205078" xlink:href="#DejaVuSans-54"/>
      <use x="1073.828125" xlink:href="#DejaVuSans-55"/>
      <use x="1137.451172" xlink:href="#DejaVuSans-46"/>
      <use x="1169.238281" xlink:href="#DejaVuSans-52"/>
      <use x="1232.861328" xlink:href="#DejaVuSans-37"/>
     </g>
    </g>
    <g id="line2d_51">
     <path d="M 580.103125 312.487594 
L 600.103125 312.487594 
" style="fill:none;stroke:#bf00bf;stroke-linecap:square;stroke-opacity:0.75;stroke-width:1.5;"/>
    </g>
    <g id="line2d_52"/>
    <g id="text_25">
     <!-- 55-64 years, mean: 67.0% -->
     <g transform="translate(608.103125 315.987594)scale(0.1 -0.1)">
      <use xlink:href="#DejaVuSans-53"/>
      <use x="63.623047" xlink:href="#DejaVuSans-53"/>
      <use x="127.246094" xlink:href="#DejaVuSans-45"/>
      <use x="163.330078" xlink:href="#DejaVuSans-54"/>
      <use x="226.953125" xlink:href="#DejaVuSans-52"/>
      <use x="290.576172" xlink:href="#DejaVuSans-32"/>
      <use x="322.363281" xlink:href="#DejaVuSans-121"/>
      <use x="381.542969" xlink:href="#DejaVuSans-101"/>
      <use x="443.066406" xlink:href="#DejaVuSans-97"/>
      <use x="504.345703" xlink:href="#DejaVuSans-114"/>
      <use x="545.458984" xlink:href="#DejaVuSans-115"/>
      <use x="597.558594" xlink:href="#DejaVuSans-44"/>
      <use x="629.345703" xlink:href="#DejaVuSans-32"/>
      <use x="661.132812" xlink:href="#DejaVuSans-109"/>
      <use x="758.544922" xlink:href="#DejaVuSans-101"/>
      <use x="820.068359" xlink:href="#DejaVuSans-97"/>
      <use x="881.347656" xlink:href="#DejaVuSans-110"/>
      <use x="944.726562" xlink:href="#DejaVuSans-58"/>
      <use x="978.417969" xlink:href="#DejaVuSans-32"/>
      <use x="1010.205078" xlink:href="#DejaVuSans-54"/>
      <use x="1073.828125" xlink:href="#DejaVuSans-55"/>
      <use x="1137.451172" xlink:href="#DejaVuSans-46"/>
      <use x="1169.238281" xlink:href="#DejaVuSans-48"/>
      <use x="1232.861328" xlink:href="#DejaVuSans-37"/>
     </g>
    </g>
    <g id="line2d_53">
     <path d="M 580.103125 327.165719 
L 600.103125 327.165719 
" style="fill:none;stroke:#bfbf00;stroke-linecap:square;stroke-opacity:0.75;stroke-width:1.5;"/>
    </g>
    <g id="line2d_54"/>
    <g id="text_26">
     <!-- 65 years and older, mean: 73.8% -->
     <g transform="translate(608.103125 330.665719)scale(0.1 -0.1)">
      <use xlink:href="#DejaVuSans-54"/>
      <use x="63.623047" xlink:href="#DejaVuSans-53"/>
      <use x="127.246094" xlink:href="#DejaVuSans-32"/>
      <use x="159.033203" xlink:href="#DejaVuSans-121"/>
      <use x="218.212891" xlink:href="#DejaVuSans-101"/>
      <use x="279.736328" xlink:href="#DejaVuSans-97"/>
      <use x="341.015625" xlink:href="#DejaVuSans-114"/>
      <use x="382.128906" xlink:href="#DejaVuSans-115"/>
      <use x="434.228516" xlink:href="#DejaVuSans-32"/>
      <use x="466.015625" xlink:href="#DejaVuSans-97"/>
      <use x="527.294922" xlink:href="#DejaVuSans-110"/>
      <use x="590.673828" xlink:href="#DejaVuSans-100"/>
      <use x="654.150391" xlink:href="#DejaVuSans-32"/>
      <use x="685.9375" xlink:href="#DejaVuSans-111"/>
      <use x="747.119141" xlink:href="#DejaVuSans-108"/>
      <use x="774.902344" xlink:href="#DejaVuSans-100"/>
      <use x="838.378906" xlink:href="#DejaVuSans-101"/>
      <use x="899.902344" xlink:href="#DejaVuSans-114"/>
      <use x="941.015625" xlink:href="#DejaVuSans-44"/>
      <use x="972.802734" xlink:href="#DejaVuSans-32"/>
      <use x="1004.589844" xlink:href="#DejaVuSans-109"/>
      <use x="1102.001953" xlink:href="#DejaVuSans-101"/>
      <use x="1163.525391" xlink:href="#DejaVuSans-97"/>
      <use x="1224.804688" xlink:href="#DejaVuSans-110"/>
      <use x="1288.183594" xlink:href="#DejaVuSans-58"/>
      <use x="1321.875" xlink:href="#DejaVuSans-32"/>
      <use x="1353.662109" xlink:href="#DejaVuSans-55"/>
      <use x="1417.285156" xlink:href="#DejaVuSans-51"/>
      <use x="1480.908203" xlink:href="#DejaVuSans-46"/>
      <use x="1512.695312" xlink:href="#DejaVuSans-56"/>
      <use x="1576.318359" xlink:href="#DejaVuSans-37"/>
     </g>
    </g>
   </g>
   <g id="line2d_55">
    <path clip-path="url(#p36e2480a35)" d="M 66.366761 193.564428 
L 82.219034 201.246011 
L 98.071307 235.173001 
L 113.92358 240.294056 
L 129.775852 249.896034 
L 145.628125 262.698672 
L 161.480398 268.459859 
L 177.33267 232.612473 
L 193.184943 250.536166 
L 209.037216 236.453264 
L 224.889489 214.68878 
L 240.741761 214.048648 
L 256.594034 253.096694 
L 272.446307 191.644032 
L 288.29858 214.68878 
L 304.150852 202.526274 
L 320.003125 178.201263 
L 335.855398 242.214451 
L 351.70767 197.405219 
L 367.559943 225.571022 
L 383.412216 186.522977 
L 399.264489 209.567725 
L 415.116761 248.61577 
L 430.969034 217.88944 
L 446.821307 235.173001 
L 462.67358 212.768385 
L 478.525852 201.246011 
L 494.378125 194.20456 
L 510.230398 192.284164 
L 526.08267 211.488121 
L 541.934943 203.166406 
L 557.787216 205.726934 
L 573.639489 172.440076 
" style="fill:none;stroke:#bfbf00;stroke-linecap:square;stroke-opacity:0.75;stroke-width:1.5;"/>
   </g>
   <g id="line2d_56">
    <path clip-path="url(#p36e2480a35)" d="M 66.366761 291.504607 
L 82.219034 279.342101 
L 98.071307 278.061837 
L 113.92358 269.740123 
L 129.775852 264.619068 
L 145.628125 257.577617 
L 161.480398 254.376957 
L 177.33267 245.415111 
L 193.184943 243.494715 
L 209.037216 240.934188 
L 224.889489 241.57432 
L 240.741761 230.051946 
L 256.594034 215.328912 
L 272.446307 205.086802 
L 288.29858 196.765087 
L 304.150852 201.246011 
L 320.003125 207.007198 
L 335.855398 210.207857 
L 351.70767 214.048648 
L 367.559943 201.886142 
L 383.412216 200.605879 
L 399.264489 198.045351 
L 415.116761 201.246011 
L 430.969034 191.644032 
L 446.821307 182.042054 
L 462.67358 175.640735 
L 478.525852 171.799944 
L 494.378125 173.080207 
L 510.230398 176.920999 
L 526.08267 178.841394 
L 541.934943 176.920999 
L 557.787216 170.51968 
L 573.639489 164.118361 
" style="fill:none;stroke:#000000;stroke-linecap:square;stroke-width:3;"/>
   </g>
  </g>
 </g>
 <defs>
  <clipPath id="p36e2480a35">
   <rect height="271.8" width="558" x="41.003125" y="67.266406"/>
  </clipPath>
 </defs>
</svg>
